<svg xmlns="http://www.w3.org/2000/svg" width="900" height="92" viewBox="0 0 900 92" role="img" aria-label="Signal out — open to Principal and Senior Cloud Platform Engineering roles">
  <defs>
  <linearGradient id="accent" x1="0" y1="0" x2="0" y2="1">
    <stop offset="0" stop-color="#ff8c1a"/>
    <stop offset="1" stop-color="#7CFC00"/>
  </linearGradient>
  <linearGradient id="ghead" x1="0" y1="0" x2="1" y2="0">
    <stop offset="0" stop-color="#7CFC00"/>
    <stop offset="1" stop-color="#ff8c1a"/>
  </linearGradient>
  <pattern id="scan" width="3" height="3" patternUnits="userSpaceOnUse">
    <rect width="3" height="1" fill="#12301a" opacity="0.35"/>
  </pattern>
  <radialGradient id="vig" cx="0.2" cy="0" r="1.1">
    <stop offset="0" stop-color="#7CFC00" stop-opacity="0.10"/>
    <stop offset="0.6" stop-color="#ff8c1a" stop-opacity="0.03"/>
    <stop offset="1" stop-color="#0a0f0a" stop-opacity="0"/>
  </radialGradient></defs>
  <rect width="900" height="92" rx="10" fill="#0a0f0a"/>
  <rect width="900" height="92" rx="10" fill="url(#scan)"/>
  <rect x="0.5" y="0.5" width="899" height="91" rx="9.5" fill="none" stroke="#1f3d24"/>
  <path d="M10 25 L10 10 L25 10 M875 10 L890 10 L890 25 M890 67 L890 82 L875 82 M25 82 L10 82 L10 67" fill="none" stroke="#ff8c1a" stroke-width="2"/>
  <g stroke="#7CFC00" stroke-width="1.5" fill="none" opacity="0.85"><circle cx="450" cy="40" r="15"/><circle cx="450" cy="40" r="6" opacity="0.5"/><line x1="429" y1="40" x2="443" y2="40"/><line x1="457" y1="40" x2="471" y2="40"/><line x1="450" y1="19" x2="450" y2="33"/><line x1="450" y1="47" x2="450" y2="61"/></g><circle cx="450" cy="40" r="2" fill="#ff8c1a"/>
  <text x="450" y="74" text-anchor="middle" font-family="ui-monospace, 'SF Mono', SFMono-Regular, Menlo, Consolas, monospace" font-size="13" letter-spacing="1.5" fill="#5f7a5a"><tspan fill="#7CFC00">// SIGNAL OUT &#183; </tspan>OPEN TO PRINCIPAL / SENIOR CLOUD PLATFORM &#183; AWS &#183; FINOPS</text>
</svg>