<svg xmlns="http://www.w3.org/2000/svg" width="900" height="64" viewBox="0 0 900 64" role="img" aria-label="06 INTEL">
  <defs>
  <linearGradient id="accent" x1="0" y1="0" x2="0" y2="1">
    <stop offset="0" stop-color="#ff8c1a"/>
    <stop offset="1" stop-color="#7CFC00"/>
  </linearGradient>
  <linearGradient id="ghead" x1="0" y1="0" x2="1" y2="0">
    <stop offset="0" stop-color="#7CFC00"/>
    <stop offset="1" stop-color="#ff8c1a"/>
  </linearGradient>
  <pattern id="scan" width="3" height="3" patternUnits="userSpaceOnUse">
    <rect width="3" height="1" fill="#12301a" opacity="0.35"/>
  </pattern>
  <radialGradient id="vig" cx="0.2" cy="0" r="1.1">
    <stop offset="0" stop-color="#7CFC00" stop-opacity="0.10"/>
    <stop offset="0.6" stop-color="#ff8c1a" stop-opacity="0.03"/>
    <stop offset="1" stop-color="#0a0f0a" stop-opacity="0"/>
  </radialGradient></defs>
  <rect width="900" height="64" rx="10" fill="#0c120c"/>
  <rect width="900" height="64" rx="10" fill="url(#scan)"/>
  <rect x="0.5" y="0.5" width="899" height="63" rx="9.5" fill="none" stroke="#1f3d24"/>
  <path d="M10 23 L10 10 L23 10 M877 10 L890 10 L890 23 M890 41 L890 54 L877 54 M23 54 L10 54 L10 41" fill="none" stroke="#7CFC00" stroke-width="2"/>
  <path d="M24 20 L36 32 L24 44" fill="none" stroke="#ff8c1a" stroke-width="2.5"/>
  <text x="52" y="40" font-family="ui-monospace, 'SF Mono', SFMono-Regular, Menlo, Consolas, monospace" font-size="20" font-weight="700" fill="#7CFC00">06</text>
  <text x="98" y="40" font-family="ui-monospace, 'SF Mono', SFMono-Regular, Menlo, Consolas, monospace" font-size="12" fill="#5f7a5a">//</text>
  <text x="122" y="40" font-family="ui-monospace, 'SF Mono', SFMono-Regular, Menlo, Consolas, monospace" font-size="21" font-weight="700" letter-spacing="1" fill="#e9fbe4">INTEL</text>
  <text x="874" y="39" text-anchor="end" font-family="ui-monospace, 'SF Mono', SFMono-Regular, Menlo, Consolas, monospace" font-size="12.5" fill="#ff8c1a">[ field notes ]</text>
</svg>