<svg xmlns="http://www.w3.org/2000/svg" width="900" height="330" viewBox="0 0 900 330" role="img" aria-label="Operator Dossier — Pradeep Maddi, Cloud Platform Engineer and FinOps">
  <defs>
  <linearGradient id="accent" x1="0" y1="0" x2="0" y2="1">
    <stop offset="0" stop-color="#ff8c1a"/>
    <stop offset="1" stop-color="#7CFC00"/>
  </linearGradient>
  <linearGradient id="ghead" x1="0" y1="0" x2="1" y2="0">
    <stop offset="0" stop-color="#7CFC00"/>
    <stop offset="1" stop-color="#ff8c1a"/>
  </linearGradient>
  <pattern id="scan" width="3" height="3" patternUnits="userSpaceOnUse">
    <rect width="3" height="1" fill="#12301a" opacity="0.35"/>
  </pattern>
  <radialGradient id="vig" cx="0.2" cy="0" r="1.1">
    <stop offset="0" stop-color="#7CFC00" stop-opacity="0.10"/>
    <stop offset="0.6" stop-color="#ff8c1a" stop-opacity="0.03"/>
    <stop offset="1" stop-color="#0a0f0a" stop-opacity="0"/>
  </radialGradient></defs>
  <rect width="900" height="330" rx="14" fill="#0a0f0a"/>
  <rect width="900" height="330" rx="14" fill="url(#vig)"/>
  <rect width="900" height="330" rx="14" fill="url(#scan)"/>
  <rect x="0.5" y="0.5" width="899" height="329" rx="13.5" fill="none" stroke="#1f3d24"/>
  <path d="M14 34 L14 14 L34 14 M866 14 L886 14 L886 34 M886 296 L886 316 L866 316 M34 316 L14 316 L14 296" fill="none" stroke="#ff8c1a" stroke-width="2"/>
  <g stroke="#7CFC00" stroke-width="1.5" fill="none" opacity="0.85"><circle cx="812" cy="150" r="30"/><circle cx="812" cy="150" r="21" opacity="0.5"/><line x1="776" y1="150" x2="790" y2="150"/><line x1="834" y1="150" x2="848" y2="150"/><line x1="812" y1="114" x2="812" y2="128"/><line x1="812" y1="172" x2="812" y2="186"/></g><circle cx="812" cy="150" r="2" fill="#ff8c1a"/>

  <!-- REC + timecode -->
  <circle cx="42" cy="40" r="5" fill="#ff3b30"/>
  <text x="56" y="45" font-family="ui-monospace, 'SF Mono', SFMono-Regular, Menlo, Consolas, monospace" font-size="13" font-weight="700" fill="#ff3b30">REC</text>
  <text x="94" y="45" font-family="ui-monospace, 'SF Mono', SFMono-Regular, Menlo, Consolas, monospace" font-size="12.5" fill="#5f7a5a">00:00:07:12   ·   FEED 04</text>

  <!-- CLASSIFIED stamp -->
  <g transform="translate(690 24)">
    <rect x="0" y="0" width="168" height="30" rx="3" fill="none" stroke="#ff8c1a" stroke-width="1.5"/>
    <text x="84" y="20" text-anchor="middle" font-family="ui-monospace, 'SF Mono', SFMono-Regular, Menlo, Consolas, monospace" font-size="12.5" font-weight="700" letter-spacing="2" fill="#ff8c1a">TS // SCI  CLASSIFIED</text>
  </g>

  <!-- accent bar + identity -->
  <rect x="40" y="86" width="6" height="176" rx="3" fill="url(#accent)"/>
  <text x="70" y="106" font-family="ui-monospace, 'SF Mono', SFMono-Regular, Menlo, Consolas, monospace" font-size="13" letter-spacing="3" fill="#7CFC00">OPERATOR DOSSIER  //  OPSEC LEVEL 5</text>
  <text x="68" y="164" font-family="ui-monospace, 'SF Mono', SFMono-Regular, Menlo, Consolas, monospace" font-size="52" font-weight="700" fill="#e9fbe4">PRADEEP MADDI</text>
  <text x="70" y="198" font-family="ui-monospace, 'SF Mono', SFMono-Regular, Menlo, Consolas, monospace" font-size="19" font-weight="700" fill="#ff8c1a">PLATFORM ENGINEER  //  FINOPS OPERATOR</text>

  <!-- data readout -->
  <text x="70" y="234" font-family="ui-monospace, 'SF Mono', SFMono-Regular, Menlo, Consolas, monospace" font-size="13.5" fill="#b7c9b0"><tspan fill="#5f7a5a">CALLSIGN &#8250; </tspan>CLOUDOPS<tspan fill="#5f7a5a">    THEATER &#8250; </tspan>150+ ACCOUNT AWS ORG</text>
  <text x="70" y="256" font-family="ui-monospace, 'SF Mono', SFMono-Regular, Menlo, Consolas, monospace" font-size="13.5" fill="#b7c9b0"><tspan fill="#5f7a5a">STATUS &#8250; </tspan>DEPLOYED · FAIL-CLOSED<tspan fill="#5f7a5a">    CLEARANCE &#8250; </tspan>ADMIN</text>

  <!-- prestige + grid -->
  <text x="70" y="298" font-family="ui-monospace, 'SF Mono', SFMono-Regular, Menlo, Consolas, monospace" font-size="12" letter-spacing="2" fill="#5f7a5a">PRESTIGE</text>
  <rect x="150" y="289" width="26" height="9" rx="1" fill="#ff8c1a"/><rect x="180" y="289" width="26" height="9" rx="1" fill="#ff8c1a"/><rect x="210" y="289" width="26" height="9" rx="1" fill="#ff8c1a"/><rect x="240" y="289" width="26" height="9" rx="1" fill="#ff8c1a"/><rect x="270" y="289" width="26" height="9" rx="1" fill="#ff8c1a"/><rect x="300" y="289" width="26" height="9" rx="1" fill="#ff8c1a"/><rect x="330" y="289" width="26" height="9" rx="1" fill="#ff8c1a"/><rect x="360" y="289" width="26" height="9" rx="1" fill="#ff8c1a"/><rect x="390" y="289" width="26" height="9" rx="1" fill="#20301e"/><rect x="420" y="289" width="26" height="9" rx="1" fill="#20301e"/>
  <text x="870" y="298" text-anchor="end" font-family="ui-monospace, 'SF Mono', SFMono-Regular, Menlo, Consolas, monospace" font-size="12" fill="#5f7a5a">GRID 51.04&#176;N 114.07&#176;W · YYC</text>
</svg>